<?xml version="1.0" encoding="UTF-8"?>
<svg id="Livello_2" data-name="Livello 2" xmlns="http://www.w3.org/2000/svg" viewBox="0 0 495.45293 89.83984">
  <g id="graphic">
    <g>
      <g>
        <path d="M33.15039,63.34766l-2.69336-11.15039H15.33984l-2.61914,11.15039H-.00098L15.63965,11.4873h14.8916l15.64062,51.86035h-13.02148Zm-15.71484-20.05566h10.92578l-5.46289-22.89941-5.46289,22.89941Z" fill="#2c2c2c"/>
        <path d="M73.18652,61.47656c-1.44727,.99902-3.13086,1.77148-5.05078,2.32031-1.92188,.54785-3.83008,.82324-5.72559,.82324-8.68066-.05078-13.02051-4.83887-13.02051-14.36816V31.8418h-5.61328v-8.23145h5.61328V15.00391l11.82324-1.34668v9.95312h9.12988l-1.27246,8.23145h-7.85742v18.25977c0,1.84668,.2998,3.16895,.89844,3.9668,.59863,.79883,1.5459,1.19727,2.84375,1.19727,1.34668,0,2.76855-.42383,4.26562-1.27246l3.96582,7.4834Z" fill="#2c2c2c"/>
        <path d="M107.72168,25.48145c1.94629,2.09473,2.91895,5.03906,2.91895,8.83008v29.03613h-11.82422v-27.01562c0-1.99414-.32422-3.37891-.97266-4.15332-.64844-.77246-1.57129-1.16016-2.76855-1.16016-2.39453,0-4.69043,1.69727-6.88477,5.08887v27.24023h-11.82422V7.82031l11.82422-1.19727V27.87598c1.64648-1.84473,3.3916-3.22949,5.23828-4.15332,1.84473-.92285,3.91602-1.38477,6.21094-1.38477,3.44238,0,6.13672,1.04785,8.08203,3.14355Z" fill="#2c2c2c"/>
        <path d="M120.68359,61.66406c-1.9209-1.9707-2.88086-4.77637-2.88086-8.41895V7.82031l11.82422-1.27246V52.7959c0,1.64648,.67285,2.46973,2.02051,2.46973,.69727,0,1.34668-.12402,1.94531-.37402l2.32031,8.38086c-2.14648,.89844-4.54102,1.34766-7.18457,1.34766-3.44238,0-6.125-.98633-8.04492-2.95605Z" fill="#2c2c2c"/>
        <path d="M173.05957,46.95898h-24.62012c.39844,3.34277,1.34668,5.6875,2.84375,7.03418,1.49609,1.34668,3.56641,2.02051,6.21094,2.02051,1.5957,0,3.14355-.28613,4.63965-.86035,1.49707-.57324,3.11719-1.45898,4.86426-2.65625l4.86426,6.58496c-4.63965,3.69238-9.80273,5.53809-15.49023,5.53809-6.43652,0-11.375-1.89551-14.81738-5.6875-3.44238-3.79102-5.16406-8.87988-5.16406-15.2666,0-4.04102,.72266-7.6709,2.16992-10.88867s3.56641-5.76172,6.36133-7.63281c2.79395-1.87109,6.13672-2.80664,10.02832-2.80664,5.73633,0,10.22656,1.7959,13.46973,5.38867,3.24219,3.5918,4.86426,8.58105,4.86426,14.9668,0,1.64648-.07422,3.06836-.22461,4.26562Zm-11.375-7.63379c-.10059-6.08594-2.24512-9.12891-6.43555-9.12891-2.0459,0-3.62891,.74805-4.75195,2.24414-1.12207,1.49707-1.80859,3.9668-2.05762,7.40918h13.24512v-.52441Z" fill="#2c2c2c"/>
        <path d="M204.11523,61.47656c-1.44727,.99902-3.13086,1.77148-5.05078,2.32031-1.92188,.54785-3.83008,.82324-5.72559,.82324-8.68066-.05078-13.02051-4.83887-13.02051-14.36816V31.8418h-5.61328v-8.23145h5.61328V15.00391l11.82324-1.34668v9.95312h9.12988l-1.27246,8.23145h-7.85742v18.25977c0,1.84668,.2998,3.16895,.89844,3.9668,.59863,.79883,1.5459,1.19727,2.84375,1.19727,1.34668,0,2.76855-.42383,4.26562-1.27246l3.96582,7.4834Z" fill="#2c2c2c"/>
        <path d="M218.18359,4.56445c1.32129,1.27246,1.9834,2.88184,1.9834,4.82715,0,1.94629-.66211,3.55469-1.9834,4.82715-1.32227,1.27246-3.00586,1.9082-5.05176,1.9082s-3.7168-.63574-5.01367-1.9082c-1.29785-1.27246-1.94531-2.88086-1.94531-4.82715,0-1.94531,.64746-3.55469,1.94531-4.82715,1.29688-1.27148,2.96777-1.9082,5.01367-1.9082s3.72949,.63672,5.05176,1.9082Zm.93555,19.0459V63.34766h-11.82422V23.61035h11.82422Z" fill="#2c2c2c"/>
        <path d="M251.34277,23.53516c2.19434,.79883,4.26562,2.02051,6.21094,3.66699l-5.08887,7.03516c-2.49512-1.89551-5.01367-2.84375-7.55859-2.84375-2.64453,0-4.63965,.97266-5.98633,2.91797-1.34668,1.94629-2.02051,5.08887-2.02051,9.42969,0,4.19043,.67383,7.15918,2.02051,8.90527,1.34668,1.74707,3.29297,2.61914,5.83691,2.61914,1.34766,0,2.56934-.21191,3.66699-.63574,1.09668-.42383,2.41895-1.11035,3.9668-2.05859l5.16309,7.33398c-3.94141,3.14258-8.40723,4.71484-13.39551,4.71484-4.04102,0-7.5332-.86133-10.47656-2.58203-2.94434-1.72168-5.21387-4.14062-6.81055-7.25879-1.59668-3.11719-2.39453-6.77246-2.39453-10.96387,0-4.19043,.79785-7.90625,2.39453-11.15039,1.59668-3.24219,3.86621-5.77344,6.81055-7.5957,2.94336-1.82031,6.36035-2.73145,10.25195-2.73145,2.74316,0,5.21289,.40039,7.40918,1.19727Z" fill="#2c2c2c"/>
        <path d="M285.4668,23.61035c2.49414,.84863,4.68848,2.0459,6.58496,3.5918l-4.33984,6.66016c-3.24414-2.04492-6.51074-3.06738-9.80371-3.06738-1.54688,0-2.73145,.26172-3.55469,.78516-.82324,.52441-1.23535,1.26074-1.23535,2.20801,0,.74805,.1875,1.35938,.56152,1.83301,.37402,.47461,1.13477,.96094,2.28223,1.45996s2.91895,1.09766,5.31348,1.7959c4.14062,1.19727,7.22168,2.75684,9.24219,4.67676,2.02051,1.9209,3.03125,4.57812,3.03125,7.96973,0,2.69434-.77441,5.02734-2.32031,6.99707-1.54688,1.97168-3.66699,3.48047-6.36035,4.52734-2.69434,1.04785-5.6875,1.57227-8.98047,1.57227-3.34277,0-6.44922-.52441-9.31738-1.57227-2.86914-1.04688-5.30176-2.49316-7.2959-4.33984l5.76172-6.43555c3.3418,2.59473,6.85938,3.89062,10.55176,3.89062,1.7959,0,3.20508-.32324,4.22852-.97266,1.02148-.64746,1.53418-1.57129,1.53418-2.76855,0-.94727-.2002-1.69531-.59863-2.24512-.40039-.54883-1.17285-1.05957-2.32031-1.53418-1.14844-.47363-2.96875-1.05957-5.46289-1.75879-3.94141-1.14648-6.88477-2.74316-8.83008-4.78906-1.94629-2.04492-2.91895-4.58984-2.91895-7.63379,0-2.29395,.66113-4.35156,1.9834-6.17383,1.32129-1.82031,3.21777-3.2666,5.6875-4.33984,2.46973-1.07227,5.3252-1.60938,8.56836-1.60938,2.84375,0,5.51172,.4248,8.00781,1.27246Z" fill="#2c2c2c"/>
        <path d="M356.4082,11.4873l-14.44238,51.86035h-15.2666l-14.9668-51.86035h12.94629l9.87793,42.28125,9.2793-42.28125h12.57227Z" fill="#2c2c2c"/>
        <path d="M370.91113,4.56445c1.32129,1.27246,1.9834,2.88184,1.9834,4.82715,0,1.94629-.66211,3.55469-1.9834,4.82715-1.32227,1.27246-3.00586,1.9082-5.05176,1.9082s-3.7168-.63574-5.01367-1.9082c-1.29785-1.27246-1.94531-2.88086-1.94531-4.82715,0-1.94531,.64746-3.55469,1.94531-4.82715,1.29688-1.27148,2.96777-1.9082,5.01367-1.9082s3.72949,.63672,5.05176,1.9082Zm.93555,19.0459V63.34766h-11.82422V23.61035h11.82422Z" fill="#2c2c2c"/>
        <path d="M408.03613,23.61035v8.30664l-17.95996,22.4502h18.33398l-1.04785,8.98047h-30.98145v-8.38184l18.03516-22.4502h-16.46387v-8.90527h30.08398Z" fill="#2c2c2c"/>
      </g>
      <g>
        <rect x="426.09068" y="32.98905" width="25.33576" height="11.58057" transform="translate(690.34099 -322.77176) rotate(119.7809)" fill="#53c7db"/>
        <rect x="442.64722" y="27.91691" width="63.33941" height="11.58057" transform="translate(745.27379 -357.05501) rotate(120.6728)" fill="#f4826c"/>
        <rect x="431.42255" y="39.48656" width="42.22627" height="11.58057" transform="translate(734.40593 402.191) rotate(-134.01316)" fill="#2c2c2c"/>
      </g>
    </g>
  </g>
</svg>